<svg xmlns="http://www.w3.org/2000/svg" width="1024" height="1024" viewBox="0 0 1024 1024" fill="none"><defs>
    <clipPath id="clip_path_1">
      <rect width="1024" height="1024"></rect>
    </clipPath>
  </defs><g clip-path="url(#clip_path_1)">
    <rect width="1024" height="1024" rx="220" ry="220" fill="#F7EFE1" fill-rule="evenodd"></rect>
    <path d="M39.2 776.8L97.6 776.8L97.6 304.8L39.2 304.8L39.2 261.6L323.2 261.6Q360 261.6 390 270.4Q420 279.2 441.2 297.2Q462.4 315.2 474 342.8Q485.6 370.4 485.6 407.2Q485.6 464.8 452.4 502Q419.2 539.2 362.4 550.4L460 724Q476 752 494.8 764.4Q513.6 776.8 541.6 776.8L547.2 776.8L547.2 820L485.6 820Q460 820 442 815.6Q424 811.2 410.4 802Q396.8 792.8 386.4 778.8Q376 764.8 366.4 745.6L272.8 567.2L192.8 567.2L192.8 776.8L251.2 776.8L251.2 820L39.2 820L39.2 776.8ZM192.8 522.4L299.2 522.4Q341.6 522.4 364.4 498.4Q387.2 474.4 387.2 434.4L387.2 396.8Q387.2 356.8 364.4 332.8Q341.6 308.8 299.2 308.8L192.8 308.8L192.8 522.4Z" fill="#1F1812" transform="translate(243 -16)"></path>
  </g></svg>
